HIERARCHY
ROOT newVegas:Hips
{
	OFFSET 0.000000 96.479958 0.000000
	CHANNELS 6 Xposition Yposition Zposition Xrotation Yrotation Zrotation
	JOINT newVegas:Pelvis
	{
		OFFSET 0.000000 0.000000 0.000000
		CHANNELS 3 Xrotation Yrotation Zrotation
		JOINT newVegas:LeftUpLeg
		{
			OFFSET 18.735201 -5.666702 -4.541200
			CHANNELS 3 Xrotation Yrotation Zrotation
			JOINT newVegas:LeftLeg
			{
				OFFSET -0.021200 -31.938179 0.493100
				CHANNELS 3 Xrotation Yrotation Zrotation
				JOINT newVegas:LeftFoot
				{
					OFFSET 0.021200 -31.938179 -4.336299
					CHANNELS 3 Xrotation Yrotation Zrotation
					JOINT newVegas:LeftToeBase
					{
						OFFSET 0.943001 -26.722000 15.023500
						CHANNELS 3 Xrotation Yrotation Zrotation
						End Site
						{
							OFFSET 0.000000 30.670183 0.000000
						}
					}
				}
				JOINT newVegas:Left_PantLeg
				{
					OFFSET 0.663870 -9.044666 -1.108900
					CHANNELS 3 Xrotation Yrotation Zrotation
					End Site
					{
						OFFSET 1.415995 20.635357 0.000000
					}
				}
			}
		}
		JOINT newVegas:RightUpLeg
		{
			OFFSET -18.735201 -5.666702 -4.541200
			CHANNELS 3 Xrotation Yrotation Zrotation
			JOINT newVegas:RightLeg
			{
				OFFSET 0.018946 -31.938133 0.493100
				CHANNELS 3 Xrotation Yrotation Zrotation
				JOINT newVegas:RightFoot
				{
					OFFSET -0.018946 -31.938126 -4.336299
					CHANNELS 3 Xrotation Yrotation Zrotation
					JOINT newVegas:RightToeBase
					{
						OFFSET -0.943001 -26.722004 15.023500
						CHANNELS 3 Xrotation Yrotation Zrotation
						End Site
						{
							OFFSET 0.000000 30.670187 0.000000
						}
					}
				}
				JOINT newVegas:Right_PantLeg
				{
					OFFSET -0.661674 -9.044716 -1.108900
					CHANNELS 3 Xrotation Yrotation Zrotation
					End Site
					{
						OFFSET -1.415958 20.635269 0.000000
					}
				}
			}
		}
	}
	JOINT newVegas:Spine
	{
		OFFSET 0.000000 10.199997 -0.299500
		CHANNELS 3 Xrotation Yrotation Zrotation
		JOINT newVegas:Spine1
		{
			OFFSET 0.000000 11.900002 -1.516600
			CHANNELS 3 Xrotation Yrotation Zrotation
			JOINT newVegas:Spine2
			{
				OFFSET 0.000000 13.600006 -2.842500
				CHANNELS 3 Xrotation Yrotation Zrotation
				JOINT newVegas:Neck
				{
					OFFSET 0.000000 9.624100 -2.890100
					CHANNELS 3 Xrotation Yrotation Zrotation
					JOINT newVegas:Head
					{
						OFFSET 0.000000 14.068802 -1.351900
						CHANNELS 3 Xrotation Yrotation Zrotation
						JOINT newVegas:Hair_Back
						{
							OFFSET 0.000000 3.231903 -17.524799
							CHANNELS 3 Xrotation Yrotation Zrotation
							End Site
							{
								OFFSET 0.000000 19.849884 0.000000
							}
						}
						JOINT newVegas:Hair_Front
						{
							OFFSET 0.000000 31.260406 4.573800
							CHANNELS 3 Xrotation Yrotation Zrotation
							JOINT newVegas:Hair_Front1
							{
								OFFSET 0.000000 2.284103 11.993300
								CHANNELS 3 Xrotation Yrotation Zrotation
								JOINT newVegas:Hair_Front2
								{
									OFFSET 0.000000 2.284103 11.993300
									CHANNELS 3 Xrotation Yrotation Zrotation
									End Site
									{
										OFFSET 0.000000 12.208862 0.000000
									}
								}
							}
						}
						JOINT newVegas:Jowel
						{
							OFFSET 0.000000 -7.458206 6.864100
							CHANNELS 3 Xrotation Yrotation Zrotation
							End Site
							{
								OFFSET 0.000000 19.849884 0.000000
							}
						}
					}
				}
				JOINT newVegas:LeftShoulder
				{
					OFFSET 15.263000 10.923401 -0.547700
					CHANNELS 3 Xrotation Yrotation Zrotation
					JOINT newVegas:LeftArm
					{
						OFFSET 25.438599 -2.830597 -13.032500
						CHANNELS 3 Xrotation Yrotation Zrotation
						JOINT newVegas:LeftForeArm
						{
							OFFSET 29.960503 0.000000 0.000000
							CHANNELS 3 Xrotation Yrotation Zrotation
							JOINT newVegas:LeftHand
							{
								OFFSET 27.849251 0.000000 0.000000
								CHANNELS 3 Xrotation Yrotation Zrotation
								JOINT newVegas:LeftHandThumb1
								{
									OFFSET 4.487587 -3.305161 6.305391
									CHANNELS 3 Xrotation Yrotation Zrotation
									JOINT newVegas:LeftHandThumb2
									{
										OFFSET 5.480453 -3.164139 3.164143
										CHANNELS 3 Xrotation Yrotation Zrotation
										JOINT newVegas:LeftHandThumb3
										{
											OFFSET 5.159721 -2.978973 2.978967
											CHANNELS 3 Xrotation Yrotation Zrotation
											End Site
											{
												OFFSET 2.494507 5.926697 1.738678
											}
										}
									}
								}
								JOINT newVegas:LeftHandIndex1
								{
									OFFSET 18.578728 -0.527832 5.208049
									CHANNELS 3 Xrotation Yrotation Zrotation
									JOINT newVegas:LeftHandIndex2
									{
										OFFSET 3.192009 0.000000 0.000000
										CHANNELS 3 Xrotation Yrotation Zrotation
										JOINT newVegas:LeftHandIndex3
										{
											OFFSET 3.835129 0.000000 0.000000
											CHANNELS 3 Xrotation Yrotation Zrotation
											End Site
											{
												OFFSET -0.034599 3.816971 0.371180
											}
										}
									}
								}
								JOINT newVegas:LeftHandMiddle1
								{
									OFFSET 18.476105 0.000000 0.000000
									CHANNELS 3 Xrotation Yrotation Zrotation
									JOINT newVegas:LeftHandMiddle2
									{
										OFFSET 3.324875 0.000000 0.000000
										CHANNELS 3 Xrotation Yrotation Zrotation
										JOINT newVegas:LeftHandMiddle3
										{
											OFFSET 4.596550 0.000000 0.000000
											CHANNELS 3 Xrotation Yrotation Zrotation
											End Site
											{
												OFFSET 0.057701 4.578827 0.399218
											}
										}
									}
								}
								JOINT newVegas:LeftHandRing1
								{
									OFFSET 17.732719 0.121887 -4.201567
									CHANNELS 3 Xrotation Yrotation Zrotation
									JOINT newVegas:LeftHandRing2
									{
										OFFSET 2.733170 0.000000 0.000000
										CHANNELS 3 Xrotation Yrotation Zrotation
										JOINT newVegas:LeftHandRing3
										{
											OFFSET 3.178268 0.000000 0.000000
											CHANNELS 3 Xrotation Yrotation Zrotation
											End Site
											{
												OFFSET 0.119102 3.170624 0.185394
											}
										}
									}
								}
								JOINT newVegas:LeftHandPinky1
								{
									OFFSET 15.989624 -0.606689 -7.535461
									CHANNELS 3 Xrotation Yrotation Zrotation
									JOINT newVegas:LeftHandPinky2
									{
										OFFSET 2.538986 0.000000 0.000000
										CHANNELS 3 Xrotation Yrotation Zrotation
										JOINT newVegas:LeftHandPinky3
										{
											OFFSET 2.593102 0.000000 0.000000
											CHANNELS 3 Xrotation Yrotation Zrotation
											End Site
											{
												OFFSET -0.150902 2.584198 0.152708
											}
										}
									}
								}
							}
							JOINT newVegas:Left_Sleeve
							{
								OFFSET 0.267448 -0.649796 0.577675
								CHANNELS 3 Xrotation Yrotation Zrotation
								End Site
								{
									OFFSET 0.000000 15.991241 0.000000
								}
							}
							JOINT newVegas:Left_CapeC
							{
								OFFSET 15.715958 -8.608795 -6.935905
								CHANNELS 3 Xrotation Yrotation Zrotation
								JOINT newVegas:Left_CapeC1
								{
									OFFSET 0.000000 -8.688499 0.000000
									CHANNELS 3 Xrotation Yrotation Zrotation
									End Site
									{
										OFFSET 0.000000 8.688499 0.000000
									}
								}
							}
						}
						JOINT newVegas:Left_CapeB
						{
							OFFSET 26.118385 -8.608795 -7.079235
							CHANNELS 3 Xrotation Yrotation Zrotation
							JOINT newVegas:Left_CapeB1
							{
								OFFSET 0.000000 -8.688499 0.000000
								CHANNELS 3 Xrotation Yrotation Zrotation
								End Site
								{
									OFFSET 0.000000 8.688499 0.000000
								}
							}
						}
						JOINT newVegas:Left_CapeA
						{
							OFFSET 5.115639 -8.608795 -10.395809
							CHANNELS 3 Xrotation Yrotation Zrotation
							JOINT newVegas:Left_CapeA1
							{
								OFFSET 0.000000 -8.688499 0.000000
								CHANNELS 3 Xrotation Yrotation Zrotation
								End Site
								{
									OFFSET 0.000000 8.688499 0.000000
								}
							}
						}
					}
				}
				JOINT newVegas:RightShoulder
				{
					OFFSET -15.263000 10.923401 -0.547700
					CHANNELS 3 Xrotation Yrotation Zrotation
					JOINT newVegas:RightArm
					{
						OFFSET -25.438599 -2.830597 -13.032500
						CHANNELS 3 Xrotation Yrotation Zrotation
						JOINT newVegas:RightForeArm
						{
							OFFSET -29.960503 0.000000 0.000000
							CHANNELS 3 Xrotation Yrotation Zrotation
							JOINT newVegas:RightHand
							{
								OFFSET -27.849251 0.000000 0.000000
								CHANNELS 3 Xrotation Yrotation Zrotation
								JOINT newVegas:RightHandThumb1
								{
									OFFSET -4.487587 -3.305161 6.305391
									CHANNELS 3 Xrotation Yrotation Zrotation
									JOINT newVegas:RightHandThumb2
									{
										OFFSET -5.480453 -3.164139 3.164143
										CHANNELS 3 Xrotation Yrotation Zrotation
										JOINT newVegas:RightHandThumb3
										{
											OFFSET -5.159721 -2.978973 2.978967
											CHANNELS 3 Xrotation Yrotation Zrotation
											End Site
											{
												OFFSET -2.494507 5.926697 1.738678
											}
										}
									}
								}
								JOINT newVegas:RightHandIndex1
								{
									OFFSET -18.578728 -0.527832 5.208049
									CHANNELS 3 Xrotation Yrotation Zrotation
									JOINT newVegas:RightHandIndex2
									{
										OFFSET -3.192009 0.000000 0.000000
										CHANNELS 3 Xrotation Yrotation Zrotation
										JOINT newVegas:RightHandIndex3
										{
											OFFSET -3.835129 0.000000 0.000000
											CHANNELS 3 Xrotation Yrotation Zrotation
											End Site
											{
												OFFSET 0.034599 3.816971 0.371180
											}
										}
									}
								}
								JOINT newVegas:RightHandMiddle1
								{
									OFFSET -18.476105 0.000000 0.000000
									CHANNELS 3 Xrotation Yrotation Zrotation
									JOINT newVegas:RightHandMiddle2
									{
										OFFSET -3.324875 0.000000 0.000000
										CHANNELS 3 Xrotation Yrotation Zrotation
										JOINT newVegas:RightHandMiddle3
										{
											OFFSET -4.596550 0.000000 0.000000
											CHANNELS 3 Xrotation Yrotation Zrotation
											End Site
											{
												OFFSET -0.057701 4.578827 0.399218
											}
										}
									}
								}
								JOINT newVegas:RightHandRing1
								{
									OFFSET -17.732719 0.121887 -4.201567
									CHANNELS 3 Xrotation Yrotation Zrotation
									JOINT newVegas:RightHandRing2
									{
										OFFSET -2.733170 0.000000 0.000000
										CHANNELS 3 Xrotation Yrotation Zrotation
										JOINT newVegas:RightHandRing3
										{
											OFFSET -3.178268 0.000000 0.000000
											CHANNELS 3 Xrotation Yrotation Zrotation
											End Site
											{
												OFFSET -0.119102 3.170624 0.185394
											}
										}
									}
								}
								JOINT newVegas:RightHandPinky1
								{
									OFFSET -15.989624 -0.606689 -7.535461
									CHANNELS 3 Xrotation Yrotation Zrotation
									JOINT newVegas:RightHandPinky2
									{
										OFFSET -2.538986 0.000000 0.000000
										CHANNELS 3 Xrotation Yrotation Zrotation
										JOINT newVegas:RightHandPinky3
										{
											OFFSET -2.593102 0.000000 0.000000
											CHANNELS 3 Xrotation Yrotation Zrotation
											End Site
											{
												OFFSET 0.150902 2.584198 0.152708
											}
										}
									}
								}
							}
							JOINT newVegas:Right_CapeC
							{
								OFFSET -15.715958 -8.608795 -6.935905
								CHANNELS 3 Xrotation Yrotation Zrotation
								JOINT newVegas:Right_CapeC1
								{
									OFFSET 0.000000 -8.688499 0.000000
									CHANNELS 3 Xrotation Yrotation Zrotation
									End Site
									{
										OFFSET 0.000000 8.688499 0.000000
									}
								}
							}
							JOINT newVegas:Right_Sleeve
							{
								OFFSET -0.267448 -0.649994 0.577675
								CHANNELS 3 Xrotation Yrotation Zrotation
								End Site
								{
									OFFSET 0.000000 15.991302 0.000000
								}
							}
						}
						JOINT newVegas:Right_CapeA
						{
							OFFSET -5.115540 -8.608795 -10.395824
							CHANNELS 3 Xrotation Yrotation Zrotation
							JOINT newVegas:Right_CapeA1
							{
								OFFSET 0.000000 -8.688499 0.000000
								CHANNELS 3 Xrotation Yrotation Zrotation
								End Site
								{
									OFFSET 0.000000 8.688499 0.000000
								}
							}
						}
						JOINT newVegas:Right_CapeB
						{
							OFFSET -26.118187 -8.608795 -7.079266
							CHANNELS 3 Xrotation Yrotation Zrotation
							JOINT newVegas:Right_CapeB1
							{
								OFFSET 0.000000 -8.688499 0.000000
								CHANNELS 3 Xrotation Yrotation Zrotation
								End Site
								{
									OFFSET 0.000000 8.688499 0.000000
								}
							}
						}
					}
				}
				JOINT newVegas:Left_Collar
				{
					OFFSET 18.625099 8.655502 8.828100
					CHANNELS 3 Xrotation Yrotation Zrotation
					JOINT newVegas:Left_Collar1
					{
						OFFSET 14.783401 10.540405 -1.259500
						CHANNELS 3 Xrotation Yrotation Zrotation
						End Site
						{
							OFFSET 0.000000 18.199875 0.000000
						}
					}
				}
				JOINT newVegas:Collar_Back
				{
					OFFSET 0.000000 15.630707 -20.132601
					CHANNELS 3 Xrotation Yrotation Zrotation
					End Site
					{
						OFFSET 0.000000 22.523010 0.000000
					}
				}
				JOINT newVegas:Left_Peck
				{
					OFFSET 17.239599 -5.132599 25.482599
					CHANNELS 3 Xrotation Yrotation Zrotation
					End Site
					{
						OFFSET 0.000000 22.523010 0.000000
					}
				}
				JOINT newVegas:Right_Peck
				{
					OFFSET -17.239599 -5.132202 25.482599
					CHANNELS 3 Xrotation Yrotation Zrotation
					End Site
					{
						OFFSET 0.000000 22.523010 0.000000
					}
				}
				JOINT newVegas:Right_Collar
				{
					OFFSET -18.625099 8.655792 8.828100
					CHANNELS 3 Xrotation Yrotation Zrotation
					JOINT newVegas:Right_Collar1
					{
						OFFSET -14.783401 10.539993 -1.259500
						CHANNELS 3 Xrotation Yrotation Zrotation
						End Site
						{
							OFFSET 0.000000 18.199631 0.000000
						}
					}
				}
			}
		}
		JOINT newVegas:Belly
		{
			OFFSET 0.000000 -6.540398 9.014299
			CHANNELS 3 Xrotation Yrotation Zrotation
			End Site
			{
				OFFSET 0.000000 11.566666 0.000000
			}
		}
	}
	JOINT newVegas:ElvisFacialAnim_Joint
	{
		OFFSET 1.000000 -95.330101 -8.825800
		CHANNELS 3 Xrotation Yrotation Zrotation
		End Site
		{
			OFFSET 0.000000 35.315800 0.000000
		}
	}
}
MOTION
Frames: 4
Frame Time: 0.033333
6.011450 77.345146 1.302137 12.080321 -21.042001 4.366915 -0.000000 -0.000001 0.000000 -65.206443 11.044077 21.416938 79.113555 -1.247846 -2.459978 -26.205066 12.102824 -1.086279 0.000000 -0.000001 0.000000 -0.000000 -0.000000 0.000001 -56.081116 1.571653 -4.397213 84.802556 -4.681296 -5.695188 -30.693357 -10.370025 5.804993 0.000000 -0.000002 -0.000000 -0.000000 0.000001 -0.000000 20.003078 -1.576137 -6.351141 4.069455 0.097690 -1.456174 4.086510 0.114550 -1.432600 0.543278 0.770417 0.867462 0.543289 0.770433 0.867457 -0.000001 -0.000001 0.000001 0.543275 0.770416 0.867465 0.543313 0.770417 0.867462 -0.000004 0.000001 -0.000000 -0.000001 -0.000001 0.000000 3.283102 -15.730867 -15.059852 -27.610463 -4.594753 -32.782227 0.000009 -84.210352 0.000023 -138.622391 0.897964 14.755990 3.767199 -25.021539 11.858913 -6.505893 7.160351 -16.637479 0.000003 -0.000002 -0.000001 -0.364678 6.142828 -68.075239 2.811845 5.002180 -58.661797 -0.000001 -0.000001 -0.000001 2.563466 7.373511 -70.468899 3.155665 5.195141 -62.528988 -0.000001 0.000001 0.000001 2.967441 7.613802 -74.755027 2.681821 4.920905 -57.158257 -0.000000 0.000004 0.000002 2.955887 7.809085 -81.037975 1.708188 4.135361 -44.873250 0.000001 -0.000002 -0.000001 -0.000003 0.000001 -0.000002 -0.000003 0.000001 -0.000002 -0.000003 0.000000 -0.000002 0.000002 0.000000 0.000001 0.000003 0.000000 0.000001 0.000002 0.000000 0.000001 0.000001 0.000001 0.000000 -1.291982 26.091251 16.427539 -12.230117 28.625803 34.036246 0.000389 101.393776 -0.000377 -26.614781 -21.070502 13.456936 33.280565 22.965531 -0.912567 19.220120 -29.074978 -1.072001 0.000001 -0.000002 -0.000001 -1.417898 1.863130 17.090901 2.401060 -4.075252 60.997523 -0.000001 0.000002 -0.000001 6.790383 -8.222457 66.884006 5.587734 -4.563434 101.538842 0.000001 0.000003 -0.000001 7.827813 -7.827860 76.309537 4.224774 -4.637089 84.666581 0.000001 0.000001 0.000001 6.654389 -7.175862 83.683867 2.349980 -4.046580 60.276283 0.000001 0.000005 0.000001 0.000000 -0.000001 -0.000000 -0.000000 0.000001 0.000005 -0.000001 0.000000 -0.000002 0.000001 -0.000002 0.000001 0.000001 -0.000002 0.000001 0.000001 -0.000002 0.000001 0.000002 -0.000002 0.000001 0.000001 -0.000001 0.000000 0.000001 -0.000001 0.000000 0.000001 -0.000001 0.000000 0.000001 -0.000001 0.000000 0.000001 -0.000001 0.000000 0.000001 -0.000001 0.000000 0.000001 -0.000001 0.000000 -0.000000 -0.000001 -0.000000 -0.000000 -0.000001 0.000000 
6.847313 77.880859 2.475988 12.335006 -21.906753 4.467747 0.000001 0.000003 -0.000000 -63.364102 11.917271 20.494421 78.531650 -0.295063 -2.659013 -27.863818 12.306468 -0.775522 -0.000000 0.000000 -0.000000 -0.000001 0.000000 0.000000 -58.038365 2.609737 -3.511523 84.717992 -4.649355 -6.179112 -25.932104 -10.200151 4.824032 -0.000000 -0.000005 0.000000 0.000007 0.000001 -0.000001 20.300784 -1.438526 -6.370404 4.105823 0.142884 -1.448607 4.111122 0.161411 -1.425048 0.526847 0.759874 0.882889 0.526823 0.759873 0.882895 0.000003 0.000001 -0.000000 0.526909 0.759887 0.882887 0.526836 0.759862 0.882894 0.000003 -0.000001 0.000000 0.000003 0.000001 -0.000000 3.500796 -15.727166 -14.928982 -27.888142 -4.971414 -33.316314 0.000026 -83.416008 0.000042 -138.611845 1.491627 14.358323 4.706649 -24.573651 12.368228 -7.220087 7.330333 -15.382231 0.000002 0.000001 -0.000003 -0.231227 6.209831 -68.244156 2.788859 4.988151 -58.397844 -0.000002 -0.000002 -0.000001 2.568885 7.376664 -70.515358 3.149934 5.192185 -62.465932 0.000001 0.000000 0.000001 2.897589 7.591873 -74.643101 2.708280 4.937824 -57.466165 0.000002 0.000003 -0.000001 2.816710 7.788580 -81.065828 1.707519 4.134722 -44.864074 0.000001 0.000000 -0.000001 -0.000000 0.000000 -0.000001 -0.000000 0.000000 -0.000001 -0.000001 -0.000000 -0.000001 0.000001 0.000000 0.000001 0.000001 0.000000 0.000001 0.000001 0.000000 0.000001 -0.000001 -0.000000 0.000001 -1.351851 26.030800 16.796275 -11.989483 28.672335 33.557088 -0.000862 101.459468 0.000840 -26.434789 -21.414984 13.249769 33.960688 23.437004 -1.860898 20.171410 -29.354941 0.528821 -0.000002 -0.000003 0.000001 -1.441440 1.879568 17.268455 2.421308 -4.086389 61.282110 -0.000000 -0.000001 0.000002 7.058098 -8.294282 67.384222 5.588835 -4.563215 101.552298 0.000001 0.000002 -0.000002 7.853791 -7.795583 76.807267 4.279269 -4.641818 85.340550 0.000001 0.000004 -0.000001 6.577105 -7.151073 84.072635 2.357174 -4.050667 60.378319 0.000003 0.000001 0.000001 -0.000001 0.000000 -0.000001 -0.000001 0.000000 0.000002 -0.000001 0.000001 0.000001 -0.000000 -0.000001 -0.000001 0.000000 -0.000001 -0.000001 -0.000000 -0.000001 -0.000001 -0.000000 -0.000001 -0.000001 -0.000002 -0.000001 0.000000 -0.000002 -0.000001 0.000000 -0.000002 -0.000001 0.000000 -0.000002 -0.000001 0.000000 -0.000002 -0.000001 0.000000 -0.000002 -0.000001 0.000000 -0.000002 -0.000001 0.000000 0.000001 -0.000000 0.000000 0.000001 0.000003 -0.000000 
7.636122 78.406937 3.703486 12.398007 -22.733036 4.384084 -0.000001 0.000001 -0.000000 -61.410340 12.838046 19.622751 77.952198 0.544566 -2.675895 -29.523841 12.507704 -0.479494 -0.000000 0.000001 0.000000 -0.000002 -0.000000 0.000000 -59.713304 3.660814 -2.507848 84.244400 -4.546870 -6.480592 -20.844371 -10.055203 4.058084 0.000000 -0.000005 0.000001 0.000003 0.000002 -0.000001 20.709417 -1.366609 -6.193213 4.150365 0.167422 -1.432195 4.153092 0.189188 -1.410431 0.524811 0.753803 0.898235 0.524821 0.753810 0.898233 -0.000002 -0.000001 -0.000000 0.524826 0.753805 0.898235 0.524692 0.753795 0.898240 0.000000 -0.000000 0.000001 -0.000002 -0.000001 -0.000001 3.715380 -15.734951 -14.804795 -28.073059 -5.197467 -33.876844 -0.000049 -82.730099 -0.000044 -138.641215 2.040144 14.011835 5.618365 -24.183152 12.848841 -7.944855 7.479928 -14.080512 0.000002 -0.000002 0.000000 -0.097664 6.275977 -68.412821 2.765994 4.974063 -58.134431 0.000000 0.000001 0.000001 2.574289 7.379841 -70.561714 3.144258 5.189236 -62.403026 -0.000001 -0.000003 -0.000001 2.827927 7.569765 -74.531496 2.734757 4.954571 -57.773442 -0.000001 0.000001 0.000002 2.677839 7.768305 -81.093648 1.706874 4.134036 -44.854976 -0.000000 -0.000002 -0.000002 -0.000001 0.000001 0.000002 -0.000001 0.000001 0.000002 -0.000001 0.000000 0.000002 0.000001 0.000001 0.000001 0.000001 0.000000 0.000001 0.000001 0.000001 0.000001 -0.000000 0.000001 0.000001 -1.451066 26.039080 17.331827 -11.755724 28.551603 33.143435 -0.002291 101.651171 0.002244 -26.100467 -22.038411 13.232516 34.652015 23.893016 -2.819244 21.136505 -29.597016 2.140275 0.000002 -0.000003 0.000001 -1.465061 1.895873 17.445661 2.441579 -4.097404 61.566157 0.000002 -0.000001 0.000001 7.326797 -8.361851 67.883693 5.589894 -4.562998 101.565760 0.000001 -0.000001 -0.000000 7.879030 -7.763237 77.303890 4.333747 -4.645933 86.013242 0.000001 -0.000003 -0.000003 6.499512 -7.127574 84.460501 2.364382 -4.054745 60.480198 0.000002 -0.000002 -0.000000 -0.000001 -0.000000 0.000000 -0.000002 -0.000001 0.000000 -0.000002 0.000002 -0.000001 0.000001 -0.000001 -0.000002 0.000001 -0.000001 -0.000002 0.000001 -0.000001 -0.000002 0.000001 -0.000001 -0.000002 -0.000003 0.000001 -0.000001 -0.000003 0.000001 -0.000001 -0.000003 0.000001 -0.000001 -0.000003 0.000001 -0.000001 -0.000003 0.000001 -0.000001 -0.000003 0.000001 -0.000001 -0.000003 0.000001 -0.000001 0.000001 -0.000001 0.000001 -0.000001 0.000001 -0.000000 
8.400579 78.937805 4.975251 12.255104 -23.484046 4.275016 0.000000 -0.000002 0.000000 -59.152983 13.813951 18.600430 77.187777 1.361994 -2.671729 -31.102236 12.701344 -0.186393 -0.000000 -0.000000 -0.000000 0.000001 0.000000 0.000000 -61.014059 4.667756 -1.641542 83.412121 -4.181298 -6.737969 -15.817747 -9.951026 3.570572 0.000000 -0.000000 0.000001 -0.000003 -0.000002 0.000000 21.223027 -1.347358 -5.957882 4.214339 0.175241 -1.397732 4.216871 0.199608 -1.377560 0.514665 0.751555 0.898043 0.514672 0.751556 0.898043 -0.000002 0.000000 -0.000001 0.514689 0.751554 0.898041 0.514772 0.751573 0.898041 0.000000 0.000000 -0.000000 -0.000002 0.000000 -0.000000 3.926925 -15.753225 -14.686428 -28.253329 -5.482745 -34.508021 -0.000099 -81.959463 -0.000109 -138.604114 2.604585 13.718089 6.497921 -23.867580 13.301313 -8.671743 7.608966 -12.760829 0.000001 -0.000001 -0.000006 0.035815 6.341122 -68.580939 2.743286 4.959915 -57.872104 -0.000002 -0.000000 -0.000001 2.579672 7.382985 -70.607887 3.138592 5.186285 -62.340359 -0.000005 -0.000002 0.000000 2.758613 7.547496 -74.420396 2.761234 4.971109 -58.079551 0.000002 -0.000002 -0.000002 2.539420 7.748231 -81.121412 1.706209 4.133388 -44.845864 0.000001 -0.000003 -0.000000 -0.000000 -0.000002 0.000001 -0.000000 -0.000002 0.000001 -0.000001 -0.000002 0.000001 0.000002 -0.000002 -0.000001 0.000002 -0.000001 -0.000001 0.000002 -0.000002 -0.000001 0.000000 -0.000002 -0.000002 -1.501394 25.908159 17.713431 -11.598509 28.471387 32.989223 -0.001207 101.733243 0.001172 -25.734486 -22.586560 13.282402 35.353401 24.332814 -3.786109 22.111906 -29.801054 3.758501 -0.000000 -0.000002 0.000003 -1.488771 1.911978 17.622279 2.461820 -4.108267 61.849248 0.000001 0.000002 -0.000001 7.596039 -8.425142 68.381798 5.590967 -4.562778 101.579168 0.000001 0.000001 -0.000000 7.903506 -7.730907 77.798805 4.388073 -4.649405 86.683700 -0.000002 0.000001 0.000001 6.421693 -7.105409 84.847014 2.371558 -4.058791 60.581743 -0.000000 -0.000000 -0.000001 -0.000002 -0.000001 -0.000002 -0.000000 -0.000002 -0.000001 -0.000004 -0.000001 -0.000004 0.000002 0.000000 -0.000001 0.000002 0.000000 -0.000001 0.000002 0.000000 -0.000001 0.000002 -0.000001 -0.000001 0.000001 -0.000003 0.000001 0.000001 -0.000003 0.000001 0.000001 -0.000003 0.000001 0.000001 -0.000003 0.000001 0.000001 -0.000003 0.000001 0.000001 -0.000003 0.000001 0.000001 -0.000003 0.000001 0.000000 0.000000 0.000001 0.000000 -0.000002 0.000000 
